<svg width="296" height="89" viewBox="0 0 296 89" fill="none" xmlns="http://www.w3.org/2000/svg">
<path d="M281.035 0H267.823V59.1718H281.201C289.347 59.1718 291.342 55.369 291.342 48.7745V10.3953C291.342 3.97136 289.263 0 281.035 0ZM283.611 48.8598C283.611 50.7196 282.944 51.7347 280.866 51.7347H275.552V7.4054H280.783C282.86 7.4054 283.611 8.33726 283.611 10.3656V48.8598ZM214.532 0H233.668V7.43914H222.263V25.6126H233.668V32.8832H219.697V51.7347H233.668V59.1738H211.966V32.8832H214.532V0ZM195.322 0H203.051V59.1718H195.322V0ZM167.563 0H186.698V7.43914H175.294V25.6126H186.698V32.8832H175.294V59.1718H167.563V0ZM138.754 0H157.889V7.43914H146.485V25.6126H157.889V32.8832H146.485V51.7347H157.889V59.1738H138.754V0ZM132.895 59.1718H111.193V25.6126H113.759V0H121.49V25.6126H118.924V51.7328H132.895V59.1718ZM84.9656 0H107.75V7.43914H100.223V25.6126H97.4663L97.1442 59.1718H89.926V25.6126H92.4923V7.43914H84.9656V0ZM57.056 0H79.8395V7.43914H72.3134V59.1718H64.5842V7.43914H57.0579V0H57.056ZM37.2866 0L27.672 59.1718H35.485L37.5304 44.359H49.4165L51.4619 59.1718H59.2746L56.8688 44.359H54.3028L47.0943 0H37.2866ZM38.5345 37.0885L42.1905 10.6035L45.8464 37.0885H38.5345ZM19.5295 29.1616C22.1072 27.8114 23.1874 25.5293 23.1874 21.9763V9.29888C23.1874 3.21198 21.2746 0 13.2121 0H0V59.1718H13.7092C21.6899 59.1718 23.5189 55.1985 23.5189 49.1116V36.5175C23.5189 32.8832 22.3568 30.5158 19.5295 29.1616ZM7.73111 7.43914H12.9625C15.2906 7.43914 15.6221 8.70606 15.6221 11.242V21.3874C15.6221 24.0066 15.2906 25.6126 12.8787 25.6126H7.73111V7.43914ZM15.7878 48.9451C15.7878 50.8029 15.1229 51.7347 13.1262 51.7347H7.73111V32.8832H12.9625C15.1248 32.8832 15.7897 34.0649 15.7897 36.0119V48.9451H15.7878ZM291.342 0H293.305V0.424299H292.574V2.51011H292.073V0.424299H291.34V0H291.342ZM296 0V2.51011H295.534V0.533348L295.044 2.51011H294.565L294.075 0.533348V2.51011H293.611V0H294.356L294.807 1.71306L295.248 0H296ZM262.991 59.1718H241.29V25.6126H243.855V0H251.587V25.6126H249.021V51.7328H262.991V59.1718ZM89.926 88.7577V85.6589L99.5703 76.1359C100.181 75.5153 100.457 75.2062 100.457 74.6151V73.2632C100.457 72.5314 100.069 72.1369 99.35 72.1369H94.0854C93.3655 72.1369 92.9778 72.5314 92.9778 73.2632V75.5171H89.926V73.2608C89.926 70.7249 91.5895 69.0339 94.083 69.0339H99.3477C101.842 69.0339 103.505 70.7249 103.505 73.2608V74.6133C103.505 75.8244 103.144 76.8954 102.425 77.6291L94.3601 85.6589H103.505V88.7577H94.0285V86.6445C94.0285 86.4461 93.7521 86.3348 93.5585 86.5032L91.2308 88.7577H89.926ZM123.304 73.2608C123.304 70.7249 124.966 69.0339 127.461 69.0339H132.448C134.942 69.0339 136.605 70.7249 136.605 73.2608V84.5326C136.605 87.0685 134.942 88.7601 132.448 88.7601H127.461C124.966 88.7601 123.304 87.0685 123.304 84.5326V73.2608ZM126.351 84.5308C126.351 85.262 126.739 85.6571 127.459 85.6571H132.446C133.166 85.6571 133.553 85.262 133.553 84.5308V73.2608C133.553 72.5296 133.166 72.1345 132.446 72.1345H127.459C126.739 72.1345 126.351 72.5296 126.351 73.2608V84.5308ZM156.402 85.9403V82.8416L166.627 69.0339H169.674V82.8416H167.68C167.487 82.8416 167.376 83.123 167.541 83.3214L169.674 85.6884V88.7601H166.627V85.9421H156.402V85.9403ZM160.225 82.8416H166.627V74.1911L160.225 82.8416ZM189.475 88.7577V85.6589L199.119 76.1359C199.729 75.5153 200.006 75.2062 200.006 74.6151V73.2632C200.006 72.5314 199.618 72.1369 198.898 72.1369H193.634C192.914 72.1369 192.526 72.5314 192.526 73.2632V75.5171H189.478V73.2608C189.478 70.7249 191.142 69.0339 193.636 69.0339H198.9C201.394 69.0339 203.057 70.7249 203.057 73.2608V74.6133C203.057 75.8244 202.697 76.8954 201.977 77.6291L193.913 85.6589H203.057V88.7577H193.581V86.6445C193.581 86.4461 193.305 86.3348 193.109 86.5032L190.781 88.7577H189.475Z" fill="white"/>
</svg>
