<svg width="138" height="22" viewBox="0 0 138 22" fill="none" xmlns="http://www.w3.org/2000/svg">
<path d="M7.73 18.41C8.46733 18.41 9.088 18.326 9.592 18.158C10.1053 17.9807 10.5207 17.7427 10.838 17.444C11.1647 17.1453 11.398 16.7953 11.538 16.394C11.6873 15.9833 11.762 15.5447 11.762 15.078C11.762 14.126 11.4353 13.3793 10.782 12.838C10.138 12.2873 9.116 12.012 7.716 12.012H3.67V18.41H7.73ZM3.67 3.402V9.702H6.946C8.346 9.702 9.39133 9.43133 10.082 8.89C10.7727 8.34867 11.118 7.56933 11.118 6.552C11.118 5.44133 10.7913 4.63867 10.138 4.144C9.494 3.64933 8.48133 3.402 7.1 3.402H3.67ZM7.1 0.839999C8.388 0.839999 9.48933 0.965999 10.404 1.218C11.3187 1.46067 12.07 1.81067 12.658 2.268C13.246 2.72533 13.6753 3.28533 13.946 3.948C14.226 4.60133 14.366 5.33867 14.366 6.16C14.366 6.636 14.2913 7.098 14.142 7.546C14.002 7.98467 13.778 8.4 13.47 8.792C13.1713 9.17467 12.7933 9.52 12.336 9.828C11.8787 10.136 11.3373 10.3927 10.712 10.598C13.568 11.2047 14.996 12.7213 14.996 15.148C14.996 16.0067 14.8327 16.7953 14.506 17.514C14.1887 18.2233 13.722 18.8393 13.106 19.362C12.4993 19.8753 11.748 20.2767 10.852 20.566C9.956 20.8553 8.934 21 7.786 21H0.394V0.839999H7.1ZM27.2742 12.25C27.2742 11.746 27.1996 11.2793 27.0502 10.85C26.9102 10.4113 26.7002 10.0333 26.4202 9.716C26.1402 9.38933 25.7902 9.13733 25.3702 8.96C24.9596 8.77333 24.4836 8.68 23.9422 8.68C22.8502 8.68 21.9916 8.99267 21.3662 9.618C20.7409 10.2433 20.3442 11.1207 20.1762 12.25H27.2742ZM20.0922 14.098C20.1296 14.91 20.2556 15.6147 20.4702 16.212C20.6849 16.8 20.9696 17.29 21.3242 17.682C21.6882 18.074 22.1176 18.368 22.6122 18.564C23.1162 18.7507 23.6762 18.844 24.2922 18.844C24.8802 18.844 25.3889 18.7787 25.8182 18.648C26.2476 18.508 26.6209 18.3587 26.9382 18.2C27.2556 18.032 27.5262 17.8827 27.7502 17.752C27.9742 17.612 28.1796 17.542 28.3662 17.542C28.6089 17.542 28.7956 17.6353 28.9262 17.822L29.7802 18.928C29.4256 19.348 29.0242 19.7027 28.5762 19.992C28.1282 20.2813 27.6522 20.5193 27.1482 20.706C26.6442 20.8833 26.1262 21.0093 25.5942 21.084C25.0622 21.168 24.5442 21.21 24.0402 21.21C23.0509 21.21 22.1316 21.0467 21.2822 20.72C20.4422 20.384 19.7096 19.894 19.0842 19.25C18.4682 18.606 17.9829 17.808 17.6282 16.856C17.2829 15.904 17.1102 14.8073 17.1102 13.566C17.1102 12.5767 17.2642 11.6527 17.5722 10.794C17.8896 9.93533 18.3376 9.18867 18.9162 8.554C19.5042 7.91933 20.2136 7.42 21.0442 7.056C21.8842 6.68267 22.8316 6.496 23.8862 6.496C24.7636 6.496 25.5756 6.64067 26.3222 6.93C27.0689 7.21 27.7129 7.62533 28.2542 8.176C28.7956 8.72667 29.2156 9.40333 29.5142 10.206C29.8222 10.9993 29.9762 11.9047 29.9762 12.922C29.9762 13.3887 29.9249 13.7013 29.8222 13.86C29.7196 14.0187 29.5329 14.098 29.2622 14.098H20.0922ZM41.3092 9.31C41.2346 9.44067 41.1506 9.534 41.0572 9.59C40.9639 9.646 40.8472 9.674 40.7072 9.674C40.5486 9.674 40.3759 9.62733 40.1892 9.534C40.0026 9.43133 39.7832 9.31933 39.5312 9.198C39.2792 9.07667 38.9806 8.96933 38.6352 8.876C38.2992 8.77333 37.9026 8.722 37.4452 8.722C37.0719 8.722 36.7312 8.76867 36.4232 8.862C36.1246 8.946 35.8679 9.072 35.6532 9.24C35.4479 9.39867 35.2892 9.59 35.1772 9.814C35.0652 10.0287 35.0092 10.262 35.0092 10.514C35.0092 10.85 35.1119 11.13 35.3172 11.354C35.5226 11.578 35.7932 11.774 36.1292 11.942C36.4652 12.1007 36.8479 12.2453 37.2772 12.376C37.7066 12.5067 38.1452 12.6467 38.5932 12.796C39.0412 12.9453 39.4799 13.118 39.9092 13.314C40.3386 13.51 40.7212 13.7527 41.0572 14.042C41.3932 14.322 41.6639 14.6673 41.8692 15.078C42.0746 15.4793 42.1772 15.9693 42.1772 16.548C42.1772 17.22 42.0559 17.8407 41.8132 18.41C41.5706 18.9793 41.2159 19.474 40.7492 19.894C40.2826 20.314 39.6992 20.6407 38.9992 20.874C38.3086 21.1073 37.5152 21.224 36.6192 21.224C36.1246 21.224 35.6439 21.1773 35.1772 21.084C34.7199 21 34.2812 20.8833 33.8612 20.734C33.4506 20.5753 33.0632 20.3887 32.6992 20.174C32.3446 19.9593 32.0272 19.726 31.7472 19.474L32.4472 18.326C32.5312 18.186 32.6339 18.0787 32.7552 18.004C32.8859 17.92 33.0446 17.878 33.2312 17.878C33.4272 17.878 33.6186 17.9433 33.8052 18.074C34.0012 18.1953 34.2252 18.3307 34.4772 18.48C34.7386 18.6293 35.0512 18.7693 35.4152 18.9C35.7792 19.0213 36.2319 19.082 36.7732 19.082C37.2212 19.082 37.6086 19.0307 37.9352 18.928C38.2619 18.816 38.5326 18.6667 38.7472 18.48C38.9619 18.2933 39.1206 18.0833 39.2232 17.85C39.3259 17.6073 39.3772 17.3507 39.3772 17.08C39.3772 16.716 39.2746 16.4173 39.0692 16.184C38.8639 15.9507 38.5886 15.75 38.2432 15.582C37.9072 15.414 37.5199 15.2647 37.0812 15.134C36.6519 15.0033 36.2132 14.8633 35.7652 14.714C35.3172 14.5647 34.8739 14.392 34.4352 14.196C34.0059 14 33.6186 13.7527 33.2732 13.454C32.9372 13.146 32.6666 12.7773 32.4612 12.348C32.2559 11.9093 32.1532 11.3773 32.1532 10.752C32.1532 10.1827 32.2652 9.64133 32.4892 9.128C32.7226 8.61467 33.0586 8.162 33.4972 7.77C33.9452 7.378 34.4912 7.07 35.1352 6.846C35.7886 6.61267 36.5399 6.496 37.3892 6.496C38.3506 6.496 39.2232 6.65 40.0072 6.958C40.7912 7.266 41.4492 7.686 41.9812 8.218L41.3092 9.31ZM49.5839 21.224C48.3985 21.224 47.4839 20.8927 46.8399 20.23C46.2052 19.558 45.8879 18.6153 45.8879 17.402V9.086H44.3199C44.1519 9.086 44.0072 9.03467 43.8859 8.932C43.7645 8.82 43.7039 8.65667 43.7039 8.442V7.224L46.0139 6.888L46.6719 2.758C46.7185 2.59933 46.7979 2.47333 46.9099 2.38C47.0219 2.27733 47.1712 2.226 47.3579 2.226H48.8979V6.916H52.8599V9.086H48.8979V17.192C48.8979 17.7053 49.0239 18.0973 49.2759 18.368C49.5279 18.6387 49.8639 18.774 50.2839 18.774C50.5172 18.774 50.7179 18.746 50.8859 18.69C51.0539 18.6247 51.1985 18.5593 51.3199 18.494C51.4412 18.4193 51.5439 18.354 51.6279 18.298C51.7212 18.2327 51.8099 18.2 51.8939 18.2C52.0619 18.2 52.1972 18.2933 52.2999 18.48L53.1959 19.95C52.7292 20.3607 52.1785 20.678 51.5439 20.902C50.9092 21.1167 50.2559 21.224 49.5839 21.224ZM72.2984 11.074V19.054C70.2918 20.5007 67.9584 21.224 65.2984 21.224C63.6651 21.224 62.1858 20.972 60.8604 20.468C59.5444 19.9547 58.4198 19.2453 57.4864 18.34C56.5531 17.4253 55.8344 16.338 55.3304 15.078C54.8264 13.818 54.5744 12.432 54.5744 10.92C54.5744 9.39867 54.8171 8.008 55.3024 6.748C55.7878 5.47867 56.4831 4.39133 57.3884 3.486C58.2938 2.57133 59.3858 1.86667 60.6644 1.372C61.9431 0.867999 63.3804 0.615999 64.9764 0.615999C65.7884 0.615999 66.5398 0.681332 67.2304 0.812C67.9304 0.933333 68.5791 1.106 69.1764 1.33C69.7738 1.554 70.3244 1.82467 70.8284 2.142C71.3324 2.45933 71.7944 2.814 72.2144 3.206L71.2764 4.704C71.1271 4.93733 70.9358 5.082 70.7024 5.138C70.4691 5.194 70.2171 5.138 69.9464 4.97C69.6758 4.81133 69.3864 4.64333 69.0784 4.466C68.7798 4.28867 68.4344 4.12533 68.0424 3.976C67.6504 3.81733 67.1978 3.69133 66.6844 3.598C66.1711 3.49533 65.5644 3.444 64.8644 3.444C63.8004 3.444 62.8391 3.62133 61.9804 3.976C61.1311 4.32133 60.4031 4.82067 59.7964 5.474C59.1898 6.118 58.7231 6.902 58.3964 7.826C58.0698 8.75 57.9064 9.78133 57.9064 10.92C57.9064 12.124 58.0791 13.202 58.4244 14.154C58.7698 15.0967 59.2598 15.8993 59.8944 16.562C60.5291 17.2153 61.2944 17.7147 62.1904 18.06C63.0958 18.4053 64.1038 18.578 65.2144 18.578C66.0451 18.578 66.7824 18.4893 67.4264 18.312C68.0798 18.1347 68.7191 17.8873 69.3444 17.57V13.566H66.5304C66.3158 13.566 66.1478 13.51 66.0264 13.398C65.9051 13.2767 65.8444 13.1227 65.8444 12.936V11.074H72.2984ZM83.1788 14.756C82.1055 14.7933 81.2002 14.882 80.4628 15.022C79.7255 15.1527 79.1282 15.3253 78.6708 15.54C78.2135 15.7453 77.8822 15.9927 77.6768 16.282C77.4808 16.5713 77.3828 16.8887 77.3828 17.234C77.3828 17.57 77.4342 17.8593 77.5368 18.102C77.6488 18.3353 77.7982 18.5313 77.9848 18.69C78.1808 18.8393 78.4048 18.9513 78.6568 19.026C78.9182 19.0913 79.2028 19.124 79.5108 19.124C80.2948 19.124 80.9668 18.9793 81.5268 18.69C82.0962 18.3913 82.6468 17.962 83.1788 17.402V14.756ZM75.1988 8.708C76.8135 7.20533 78.7362 6.454 80.9668 6.454C81.7882 6.454 82.5162 6.58933 83.1508 6.86C83.7948 7.12133 84.3315 7.49467 84.7608 7.98C85.1995 8.46533 85.5308 9.044 85.7548 9.716C85.9882 10.3787 86.1048 11.116 86.1048 11.928V21H84.7608C84.4715 21 84.2522 20.958 84.1028 20.874C83.9535 20.7807 83.8275 20.5987 83.7248 20.328L83.4308 19.166C83.0668 19.4927 82.7075 19.7867 82.3528 20.048C81.9982 20.3 81.6295 20.5147 81.2468 20.692C80.8735 20.8693 80.4675 21 80.0288 21.084C79.5995 21.1773 79.1235 21.224 78.6008 21.224C78.0222 21.224 77.4808 21.1447 76.9768 20.986C76.4822 20.8273 76.0528 20.5893 75.6888 20.272C75.3248 19.9453 75.0355 19.544 74.8208 19.068C74.6155 18.592 74.5128 18.032 74.5128 17.388C74.5128 16.8373 74.6575 16.3007 74.9468 15.778C75.2455 15.2553 75.7308 14.7887 76.4028 14.378C77.0842 13.958 77.9755 13.6127 79.0768 13.342C80.1875 13.0713 81.5548 12.9173 83.1788 12.88V11.928C83.1788 10.9013 82.9595 10.136 82.5208 9.632C82.0822 9.128 81.4382 8.876 80.5888 8.876C80.0102 8.876 79.5248 8.95067 79.1328 9.1C78.7408 9.24 78.4002 9.394 78.1108 9.562C77.8215 9.73 77.5648 9.88867 77.3408 10.038C77.1168 10.178 76.8788 10.248 76.6268 10.248C76.4215 10.248 76.2442 10.1967 76.0948 10.094C75.9548 9.982 75.8382 9.84667 75.7448 9.688L75.1988 8.708ZM89.6309 21V6.72H91.4509C91.8615 6.72 92.1229 6.91133 92.2349 7.294L92.4309 8.54C92.6922 8.24133 92.9629 7.97067 93.2429 7.728C93.5229 7.476 93.8215 7.26133 94.1389 7.084C94.4655 6.89733 94.8109 6.75267 95.1749 6.65C95.5482 6.54733 95.9495 6.496 96.3789 6.496C96.8362 6.496 97.2562 6.56133 97.6389 6.692C98.0215 6.82267 98.3575 7.00933 98.6469 7.252C98.9455 7.49467 99.2022 7.78867 99.4169 8.134C99.6315 8.47933 99.8089 8.86667 99.9489 9.296C100.164 8.80133 100.434 8.37667 100.761 8.022C101.088 7.66733 101.452 7.378 101.853 7.154C102.254 6.93 102.679 6.76667 103.127 6.664C103.584 6.552 104.046 6.496 104.513 6.496C105.278 6.496 105.96 6.61733 106.557 6.86C107.164 7.10267 107.672 7.45733 108.083 7.924C108.503 8.38133 108.82 8.946 109.035 9.618C109.25 10.29 109.357 11.0553 109.357 11.914V21H106.347V11.914C106.347 10.906 106.128 10.15 105.689 9.646C105.26 9.13267 104.62 8.876 103.771 8.876C103.388 8.876 103.029 8.94133 102.693 9.072C102.357 9.20267 102.063 9.394 101.811 9.646C101.559 9.898 101.358 10.2153 101.209 10.598C101.069 10.9713 100.999 11.41 100.999 11.914V21H97.9889V11.914C97.9889 10.8687 97.7789 10.1033 97.3589 9.618C96.9389 9.12333 96.3229 8.876 95.5109 8.876C94.9509 8.876 94.4329 9.02067 93.9569 9.31C93.4809 9.59 93.0422 9.97733 92.6409 10.472V21H89.6309ZM122.239 12.25C122.239 11.746 122.164 11.2793 122.015 10.85C121.875 10.4113 121.665 10.0333 121.385 9.716C121.105 9.38933 120.755 9.13733 120.335 8.96C119.924 8.77333 119.448 8.68 118.907 8.68C117.815 8.68 116.956 8.99267 116.331 9.618C115.706 10.2433 115.309 11.1207 115.141 12.25H122.239ZM115.057 14.098C115.094 14.91 115.22 15.6147 115.435 16.212C115.65 16.8 115.934 17.29 116.289 17.682C116.653 18.074 117.082 18.368 117.577 18.564C118.081 18.7507 118.641 18.844 119.257 18.844C119.845 18.844 120.354 18.7787 120.783 18.648C121.212 18.508 121.586 18.3587 121.903 18.2C122.22 18.032 122.491 17.8827 122.715 17.752C122.939 17.612 123.144 17.542 123.331 17.542C123.574 17.542 123.76 17.6353 123.891 17.822L124.745 18.928C124.39 19.348 123.989 19.7027 123.541 19.992C123.093 20.2813 122.617 20.5193 122.113 20.706C121.609 20.8833 121.091 21.0093 120.559 21.084C120.027 21.168 119.509 21.21 119.005 21.21C118.016 21.21 117.096 21.0467 116.247 20.72C115.407 20.384 114.674 19.894 114.049 19.25C113.433 18.606 112.948 17.808 112.593 16.856C112.248 15.904 112.075 14.8073 112.075 13.566C112.075 12.5767 112.229 11.6527 112.537 10.794C112.854 9.93533 113.302 9.18867 113.881 8.554C114.469 7.91933 115.178 7.42 116.009 7.056C116.849 6.68267 117.796 6.496 118.851 6.496C119.728 6.496 120.54 6.64067 121.287 6.93C122.034 7.21 122.678 7.62533 123.219 8.176C123.76 8.72667 124.18 9.40333 124.479 10.206C124.787 10.9993 124.941 11.9047 124.941 12.922C124.941 13.3887 124.89 13.7013 124.787 13.86C124.684 14.0187 124.498 14.098 124.227 14.098H115.057ZM136.274 9.31C136.199 9.44067 136.115 9.534 136.022 9.59C135.929 9.646 135.812 9.674 135.672 9.674C135.513 9.674 135.341 9.62733 135.154 9.534C134.967 9.43133 134.748 9.31933 134.496 9.198C134.244 9.07667 133.945 8.96933 133.6 8.876C133.264 8.77333 132.867 8.722 132.41 8.722C132.037 8.722 131.696 8.76867 131.388 8.862C131.089 8.946 130.833 9.072 130.618 9.24C130.413 9.39867 130.254 9.59 130.142 9.814C130.03 10.0287 129.974 10.262 129.974 10.514C129.974 10.85 130.077 11.13 130.282 11.354C130.487 11.578 130.758 11.774 131.094 11.942C131.43 12.1007 131.813 12.2453 132.242 12.376C132.671 12.5067 133.11 12.6467 133.558 12.796C134.006 12.9453 134.445 13.118 134.874 13.314C135.303 13.51 135.686 13.7527 136.022 14.042C136.358 14.322 136.629 14.6673 136.834 15.078C137.039 15.4793 137.142 15.9693 137.142 16.548C137.142 17.22 137.021 17.8407 136.778 18.41C136.535 18.9793 136.181 19.474 135.714 19.894C135.247 20.314 134.664 20.6407 133.964 20.874C133.273 21.1073 132.48 21.224 131.584 21.224C131.089 21.224 130.609 21.1773 130.142 21.084C129.685 21 129.246 20.8833 128.826 20.734C128.415 20.5753 128.028 20.3887 127.664 20.174C127.309 19.9593 126.992 19.726 126.712 19.474L127.412 18.326C127.496 18.186 127.599 18.0787 127.72 18.004C127.851 17.92 128.009 17.878 128.196 17.878C128.392 17.878 128.583 17.9433 128.77 18.074C128.966 18.1953 129.19 18.3307 129.442 18.48C129.703 18.6293 130.016 18.7693 130.38 18.9C130.744 19.0213 131.197 19.082 131.738 19.082C132.186 19.082 132.573 19.0307 132.9 18.928C133.227 18.816 133.497 18.6667 133.712 18.48C133.927 18.2933 134.085 18.0833 134.188 17.85C134.291 17.6073 134.342 17.3507 134.342 17.08C134.342 16.716 134.239 16.4173 134.034 16.184C133.829 15.9507 133.553 15.75 133.208 15.582C132.872 15.414 132.485 15.2647 132.046 15.134C131.617 15.0033 131.178 14.8633 130.73 14.714C130.282 14.5647 129.839 14.392 129.4 14.196C128.971 14 128.583 13.7527 128.238 13.454C127.902 13.146 127.631 12.7773 127.426 12.348C127.221 11.9093 127.118 11.3773 127.118 10.752C127.118 10.1827 127.23 9.64133 127.454 9.128C127.687 8.61467 128.023 8.162 128.462 7.77C128.91 7.378 129.456 7.07 130.1 6.846C130.753 6.61267 131.505 6.496 132.354 6.496C133.315 6.496 134.188 6.65 134.972 6.958C135.756 7.266 136.414 7.686 136.946 8.218L136.274 9.31Z" fill="white"/>
</svg>
